<svg version="1" xmlns="http://www.w3.org/2000/svg" width="128" height="128" viewBox="0 0 96.000000 96.000000"><path d="M30.8 10.5c-.9 2.1-.9 3.1 0 4.6.7 1.1 1 2.4.6 3-.3.5 0 1.7.7 2.5 1.8 2.2 4.3-1.8 3.3-5.4-.4-1.5-.6-3.2-.5-3.8 0-.6-.5-1.7-1.4-2.4-1.2-1-1.7-.7-2.7 1.5zM39 10c-.7 1.3-.9 3.3-.4 4.8.4 1.5.6 3.1.5 3.6-.1.4.4 1.4 1 2.2 1.8 2.2 4.2-1.7 3.2-5.3-.4-1.5-.6-3.3-.5-3.9.1-.6-.4-1.7-1.2-2.3-1.2-1-1.7-.8-2.6.9zM47 10c-.7 1.3-.9 3.3-.4 4.8.4 1.5.8 3.4.8 4.2.1.8.9 1.6 1.8 1.8 2.1.4 3.5-4.2 1.9-6.2-.6-.7-.9-2-.6-2.8.3-.8-.1-2-.9-2.7-1.2-1-1.7-.8-2.6.9zM27.2 25.8c-8.5 3.1-11.4 6.8-7.2 9.4 2.3 1.5 2.9 7.8.7 7.8-.8 0-3.2 1.3-5.4 2.9-6.3 4.5-7.4 8.7-7.1 25.6l.3 14 2.6.3c1.7.2 2.9 1.1 3.2 2.3.7 2.7 6.7 2.7 7.4-.1.5-1.9 1.4-2 20.3-2 18.9 0 19.8.1 20.3 2 .7 2.8 6.7 2.8 7.4.1.3-1.2 1.5-2.1 3.2-2.3l2.6-.3.3-14.8C75.9 62 76.5 56 77 56c.6 0 1 .4 1 1 0 .5 2.3 1 5 1 4.8 0 5-.1 5-2.8 0-1.5-.5-3.3-1.2-4-1.4-1.4-8.8-1.6-8.8-.2 0 2.2-3.7.8-6.2-2.4-1.5-1.9-4.4-4-6.3-4.7-2.9-1.1-3.5-1.8-3.5-4.2 0-1.8.9-3.6 2.3-4.7 2.9-2.5 1.6-4.7-4.6-7.8-6.6-3.4-24.8-4.1-32.5-1.4z"/></svg>